<?xml version="1.0" encoding="UTF-8" standalone="no"?>
<!-- Created with Inkscape (http://www.inkscape.org/) -->
<svg
   xmlns:dc="http://purl.org/dc/elements/1.1/"
   xmlns:cc="http://creativecommons.org/ns#"
   xmlns:rdf="http://www.w3.org/1999/02/22-rdf-syntax-ns#"
   xmlns:svg="http://www.w3.org/2000/svg"
   xmlns="http://www.w3.org/2000/svg"
   xmlns:sodipodi="http://sodipodi.sourceforge.net/DTD/sodipodi-0.dtd"
   xmlns:inkscape="http://www.inkscape.org/namespaces/inkscape"
   width="297mm"
   height="210mm"
   id="svg2383"
   sodipodi:version="0.32"
   inkscape:version="0.46"
   sodipodi:docname="flower.svg"
   inkscape:output_extension="org.inkscape.output.svg.inkscape">
  <defs
     id="defs2385">
    <inkscape:perspective
       sodipodi:type="inkscape:persp3d"
       inkscape:vp_x="0 : 372.04724 : 1"
       inkscape:vp_y="0 : 1000 : 0"
       inkscape:vp_z="1052.3622 : 372.04724 : 1"
       inkscape:persp3d-origin="526.18109 : 248.03149 : 1"
       id="perspective2392" />
  </defs>
  <sodipodi:namedview
     inkscape:document-units="mm"
     pagecolor="#ffffff"
     bordercolor="#666666"
     borderopacity="1.0"
     inkscape:pageopacity="0.0"
     inkscape:pageshadow="2"
     inkscape:zoom="0.72437038"
     inkscape:cx="526.18109"
     inkscape:cy="390.23242"
     inkscape:current-layer="layer1"
     id="namedview2387"
     showgrid="false"
     inkscape:window-width="1280"
     inkscape:window-height="744"
     inkscape:window-x="4"
     inkscape:window-y="0" />
  <metadata
     id="metadata2389">
    <rdf:RDF>
      <cc:Work
         rdf:about="">
        <dc:format>image/svg+xml</dc:format>
        <dc:type
           rdf:resource="http://purl.org/dc/dcmitype/StillImage" />
      </cc:Work>
    </rdf:RDF>
  </metadata>
  <g
     inkscape:label="Layer 1"
     inkscape:groupmode="layer"
     id="layer1">
    <rect
       style="opacity:1;fill:#789fed;fill-opacity:1;stroke:none;stroke-width:20.84173203;stroke-linecap:round;stroke-linejoin:miter;stroke-miterlimit:4;stroke-dasharray:none;stroke-dashoffset:0;stroke-opacity:1"
       id="rect4447"
       width="1067.2307"
       height="754.99139"
       x="-2.0238099"
       y="0.21250166" />
    <path
       style="fill:none;fill-rule:evenodd;stroke:#000000;stroke-width:2.87927032;stroke-linecap:butt;stroke-linejoin:miter;stroke-miterlimit:4;stroke-dasharray:none;stroke-opacity:1"
       d="M 558.4025,87.606747 C 558.4025,87.606747 554.78788,118.77575 555.2205,128.65458 C 555.66326,138.76546 561.2663,154.1106 561.2663,154.1106"
       id="trunk1 "
       sodipodi:nodetypes="csc" />
    <path
       style="fill:#000000;fill-opacity:1;fill-rule:evenodd;stroke:#000000;stroke-width:0.13816935px;stroke-linecap:butt;stroke-linejoin:miter;stroke-opacity:1"
       d="M 911.40782,106.31654 C 898.27296,107.02304 911.72607,146.73384 911.72607,146.73384 C 911.72607,146.73384 924.22535,105.6271 911.40782,106.31654 z"
       id="leaf1"
       sodipodi:nodetypes="czz" />
    <path
       style="font-size:40px;font-style:normal;font-weight:normal;fill:#000000;fill-opacity:1;stroke:none;stroke-width:1px;stroke-linecap:butt;stroke-linejoin:miter;stroke-opacity:1;font-family:Bitstream Vera Sans"
       d="M 139.18584,47.9464 L 139.18584,59.547962 L 135.57256,59.547962 L 135.57256,29.35265 L 139.18584,29.35265 L 139.18584,32.672962 C 139.94104,31.370899 140.89156,30.407358 142.0374,29.782337 C 143.19624,29.144338 144.57645,28.825328 146.17802,28.825306 C 148.83426,28.825328 150.9892,29.880015 152.64287,31.989368 C 154.30951,34.098761 155.14284,36.872195 155.14287,40.309681 C 155.14284,43.747188 154.30951,46.520623 152.64287,48.629993 C 150.9892,50.739369 148.83426,51.794055 146.17802,51.794056 C 144.57645,51.794055 143.19624,51.481556 142.0374,50.856556 C 140.89156,50.218536 139.94104,49.248485 139.18584,47.9464 M 151.4124,40.309681 C 151.41238,37.666465 150.86551,35.596155 149.77177,34.098743 C 148.69103,32.588345 147.20014,31.833138 145.29912,31.833118 C 143.39806,31.833138 141.90067,32.588345 140.80693,34.098743 C 139.72619,35.596155 139.18583,37.666465 139.18584,40.309681 C 139.18583,42.952918 139.72619,45.029739 140.80693,46.54015 C 141.90067,48.037549 143.39806,48.786246 145.29912,48.786243 C 147.20014,48.786246 148.69103,48.037549 149.77177,46.54015 C 150.86551,45.029739 151.41238,42.952918 151.4124,40.309681 M 179.81084,39.391712 L 179.81084,41.149525 L 163.2874,41.149525 C 163.44364,43.623491 164.18583,45.51151 165.51396,46.813587 C 166.8551,48.102653 168.71708,48.747183 171.0999,48.747181 C 172.48009,48.747183 173.81473,48.577913 175.10381,48.239368 C 176.40587,47.90083 177.69493,47.393018 178.97099,46.715931 L 178.97099,50.114368 C 177.68191,50.661244 176.3603,51.07791 175.00615,51.364368 C 173.65197,51.650826 172.27827,51.794055 170.88506,51.794056 C 167.39546,51.794055 164.62854,50.778431 162.58427,48.747181 C 160.55302,46.715935 159.5374,43.968542 159.5374,40.504993 C 159.5374,36.924279 160.50094,34.08574 162.42802,31.989368 C 164.36812,29.880015 166.9788,28.825328 170.26006,28.825306 C 173.20275,28.825328 175.52696,29.775848 177.23271,31.676868 C 178.95144,33.564907 179.81081,36.136519 179.81084,39.391712 M 176.21709,38.337025 C 176.19103,36.370894 175.63764,34.801885 174.55693,33.629993 C 173.48921,32.458137 172.06994,31.8722 170.29912,31.872181 C 168.2939,31.8722 166.68583,32.438606 165.4749,33.5714 C 164.27698,34.704229 163.58687,36.299279 163.40459,38.356556 L 176.21709,38.337025 M 189.18584,23.141712 L 189.18584,29.35265 L 196.58818,29.35265 L 196.58818,32.145618 L 189.18584,32.145618 L 189.18584,44.020618 C 189.18583,45.804478 189.42671,46.95031 189.90849,47.458118 C 190.40328,47.965934 191.39937,48.21984 192.89677,48.219837 L 196.58818,48.219837 L 196.58818,51.22765 L 192.89677,51.22765 C 190.12333,51.22765 188.20927,50.713327 187.15459,49.684681 C 186.0999,48.643017 185.57255,46.754998 185.57256,44.020618 L 185.57256,32.145618 L 182.93584,32.145618 L 182.93584,29.35265 L 185.57256,29.35265 L 185.57256,23.141712 L 189.18584,23.141712 M 211.27568,40.231556 C 208.37202,40.231567 206.36031,40.563598 205.24052,41.22765 C 204.12073,41.891722 203.56083,43.024533 203.56084,44.626087 C 203.56083,45.902134 203.9775,46.917758 204.81084,47.672962 C 205.65718,48.415153 206.80302,48.786246 208.24834,48.786243 C 210.24051,48.786246 211.83556,48.083122 213.03349,46.676868 C 214.24441,45.257604 214.84988,43.376095 214.8499,41.032337 L 214.8499,40.231556 L 211.27568,40.231556 M 218.44365,38.747181 L 218.44365,51.22765 L 214.8499,51.22765 L 214.8499,47.907337 C 214.02957,49.235464 213.00744,50.218536 211.78349,50.856556 C 210.55952,51.481556 209.06213,51.794055 207.29131,51.794056 C 205.05171,51.794055 203.26786,51.169056 201.93974,49.919056 C 200.62464,48.656038 199.96708,46.969841 199.96709,44.860462 C 199.96708,42.399534 200.7874,40.544067 202.42802,39.294056 C 204.08166,38.044069 206.5426,37.41907 209.81084,37.419056 L 214.8499,37.419056 L 214.8499,37.067493 C 214.84988,35.413863 214.30301,34.137823 213.20927,33.239368 C 212.12853,32.327929 210.60509,31.8722 208.63896,31.872181 C 207.38895,31.8722 206.17151,32.02194 204.98662,32.3214 C 203.80172,32.620897 202.66239,33.070116 201.56865,33.669056 L 201.56865,30.348743 C 202.88375,29.840952 204.15979,29.463349 205.39677,29.215931 C 206.63374,28.955537 207.83817,28.825328 209.01006,28.825306 C 212.1741,28.825328 214.53738,29.64564 216.0999,31.286243 C 217.66238,32.926887 218.44363,35.413863 218.44365,38.747181 M 225.94365,20.837025 L 229.5374,20.837025 L 229.5374,51.22765 L 225.94365,51.22765 L 225.94365,20.837025"
       id="text4301" />
    <path
       style="font-size:40px;font-style:normal;font-weight:normal;fill:#000000;fill-opacity:1;stroke:none;stroke-width:1px;stroke-linecap:butt;stroke-linejoin:miter;stroke-opacity:1;font-family:Bitstream Vera Sans"
       d="M 504.45886,23.141712 L 504.45886,29.35265 L 511.86121,29.35265 L 511.86121,32.145618 L 504.45886,32.145618 L 504.45886,44.020618 C 504.45885,45.804478 504.69974,46.95031 505.18152,47.458118 C 505.6763,47.965934 506.67239,48.21984 508.1698,48.219837 L 511.86121,48.219837 L 511.86121,51.22765 L 508.1698,51.22765 C 505.39635,51.22765 503.48229,50.713327 502.42761,49.684681 C 501.37292,48.643017 500.84558,46.754998 500.84558,44.020618 L 500.84558,32.145618 L 498.20886,32.145618 L 498.20886,29.35265 L 500.84558,29.35265 L 500.84558,23.141712 L 504.45886,23.141712 M 529.28308,32.712025 C 528.87942,32.477668 528.43671,32.308398 527.95496,32.204212 C 527.48619,32.087044 526.96536,32.02845 526.39246,32.028431 C 524.36119,32.02845 522.7987,32.692512 521.70496,34.020618 C 520.62422,35.335738 520.08386,37.230268 520.08386,39.704212 L 520.08386,51.22765 L 516.47058,51.22765 L 516.47058,29.35265 L 520.08386,29.35265 L 520.08386,32.751087 C 520.83906,31.422982 521.82213,30.43991 523.03308,29.801868 C 524.24401,29.150849 525.71536,28.825328 527.44714,28.825306 C 527.69452,28.825328 527.96796,28.84486 528.26746,28.8839 C 528.56692,28.909964 528.89895,28.955537 529.26355,29.020618 L 529.28308,32.712025 M 532.72058,42.594837 L 532.72058,29.35265 L 536.31433,29.35265 L 536.31433,42.458118 C 536.31432,44.528438 536.71797,46.084426 537.52527,47.126087 C 538.33255,48.154736 539.54349,48.669058 541.15808,48.669056 C 543.09817,48.669058 544.62812,48.05057 545.74792,46.813587 C 546.88072,45.576614 547.44713,43.890417 547.44714,41.754993 L 547.44714,29.35265 L 551.04089,29.35265 L 551.04089,51.22765 L 547.44714,51.22765 L 547.44714,47.868275 C 546.57473,49.196402 545.55911,50.185984 544.40027,50.837025 C 543.25442,51.475045 541.91979,51.794055 540.39636,51.794056 C 537.88333,51.794055 535.97578,51.012806 534.67371,49.450306 C 533.37162,47.887809 532.72058,45.602655 532.72058,42.594837 M 576.66589,38.024525 L 576.66589,51.22765 L 573.07214,51.22765 L 573.07214,38.141712 C 573.07213,36.071415 572.66848,34.521937 571.86121,33.493275 C 571.0539,32.464648 569.84296,31.950325 568.22839,31.950306 C 566.28828,31.950325 564.75833,32.568814 563.63855,33.805775 C 562.51875,35.04277 561.95886,36.728966 561.95886,38.864368 L 561.95886,51.22765 L 558.34558,51.22765 L 558.34558,29.35265 L 561.95886,29.35265 L 561.95886,32.751087 C 562.81823,31.436003 563.82734,30.452931 564.98621,29.801868 C 566.15807,29.150849 567.50572,28.825328 569.02917,28.825306 C 571.54218,28.825328 573.44322,29.606578 574.7323,31.169056 C 576.02134,32.718554 576.66587,35.003708 576.66589,38.024525 M 583.73621,20.837025 L 587.34949,20.837025 L 587.34949,38.786243 L 598.07214,29.35265 L 602.66199,29.35265 L 591.06042,39.587025 L 603.15027,51.22765 L 598.46277,51.22765 L 587.34949,40.544056 L 587.34949,51.22765 L 583.73621,51.22765 L 583.73621,20.837025"
       id="text4305" />
    <path
       style="font-size:40px;font-style:normal;font-weight:normal;fill:#000000;fill-opacity:1;stroke:none;stroke-width:1px;stroke-linecap:butt;stroke-linejoin:miter;stroke-opacity:1;font-family:Bitstream Vera Sans"
       d="M 877.40765,24.713978 L 881.0014,24.713978 L 881.0014,55.104603 L 877.40765,55.104603 L 877.40765,24.713978 M 907.21234,43.268665 L 907.21234,45.026478 L 890.6889,45.026478 C 890.84515,47.500444 891.58733,49.388463 892.91547,50.69054 C 894.2566,51.979606 896.11858,52.624137 898.5014,52.624134 C 899.8816,52.624137 901.21623,52.454866 902.50531,52.116322 C 903.80737,51.777783 905.09644,51.269971 906.3725,50.592884 L 906.3725,53.991322 C 905.08341,54.538197 903.7618,54.954863 902.40765,55.241322 C 901.05347,55.527779 899.67977,55.671008 898.28656,55.671009 C 894.79697,55.671008 892.03004,54.655385 889.98578,52.624134 C 887.95453,50.592889 886.9389,47.845495 886.9389,44.381947 C 886.9389,40.801232 887.90244,37.962693 889.82953,35.866322 C 891.76963,33.756968 894.3803,32.702281 897.66156,32.702259 C 900.60425,32.702281 902.92847,33.652801 904.63422,35.553822 C 906.35294,37.44186 907.21232,40.013472 907.21234,43.268665 M 903.61859,42.213978 C 903.59253,40.247847 903.03915,38.678838 901.95844,37.506947 C 900.89071,36.33509 899.47144,35.749153 897.70062,35.749134 C 895.6954,35.749153 894.08733,36.315559 892.8764,37.448353 C 891.67848,38.581182 890.98838,40.176232 890.80609,42.233509 L 903.61859,42.213978 M 922.97406,44.108509 C 920.0704,44.10852 918.05869,44.440551 916.9389,45.104603 C 915.81911,45.768675 915.25921,46.901486 915.25922,48.50304 C 915.25921,49.779087 915.67588,50.794711 916.50922,51.549915 C 917.35556,52.292106 918.50139,52.663199 919.94672,52.663197 C 921.93889,52.663199 923.53394,51.960075 924.73187,50.553822 C 925.94279,49.134557 926.54826,47.253048 926.54828,44.90929 L 926.54828,44.108509 L 922.97406,44.108509 M 930.14203,42.624134 L 930.14203,55.104603 L 926.54828,55.104603 L 926.54828,51.78429 C 925.72795,53.112417 924.70582,54.095489 923.48187,54.733509 C 922.2579,55.358509 920.76051,55.671008 918.98969,55.671009 C 916.75009,55.671008 914.96624,55.046009 913.63812,53.796009 C 912.32302,52.532991 911.66546,50.846795 911.66547,48.737415 C 911.66546,46.276487 912.48578,44.42102 914.1264,43.171009 C 915.78004,41.921022 918.24098,41.296023 921.50922,41.296009 L 926.54828,41.296009 L 926.54828,40.944447 C 926.54826,39.290817 926.00139,38.014776 924.90765,37.116322 C 923.82691,36.204882 922.30347,35.749153 920.33734,35.749134 C 919.08733,35.749153 917.86988,35.898893 916.685,36.198353 C 915.5001,36.497851 914.36077,36.947069 913.26703,37.546009 L 913.26703,34.225697 C 914.58213,33.717905 915.85817,33.340302 917.09515,33.092884 C 918.33212,32.83249 919.53655,32.702281 920.70844,32.702259 C 923.87248,32.702281 926.23576,33.522593 927.79828,35.163197 C 929.36076,36.80384 930.14201,39.290817 930.14203,42.624134 M 948.71625,24.713978 L 948.71625,27.702259 L 945.27875,27.702259 C 943.98967,27.702286 943.09124,27.962703 942.58344,28.483509 C 942.08864,29.004368 941.84124,29.941868 941.84125,31.296009 L 941.84125,33.229603 L 947.75922,33.229603 L 947.75922,36.022572 L 941.84125,36.022572 L 941.84125,55.104603 L 938.22797,55.104603 L 938.22797,36.022572 L 934.79047,36.022572 L 934.79047,33.229603 L 938.22797,33.229603 L 938.22797,31.706165 C 938.22796,29.271295 938.79437,27.500464 939.92719,26.393665 C 941.05999,25.273903 942.85686,24.714008 945.31781,24.713978 L 948.71625,24.713978"
       id="text4309" />
    <g
       id="petal1"
       transform="matrix(0.1381693,0,0,0.1381693,122.4649,82.180185)">
      <path
         transform="matrix(0.78125,0,0,1,95.731202,4.6066141)"
         style="fill:#000000;fill-opacity:1;stroke:none;stroke-width:24.73937035;stroke-linecap:round;stroke-linejoin:miter;stroke-miterlimit:6.9000001;stroke-dashoffset:0;stroke-opacity:1"
         d="M 290.21668,160.20615 C 290.21668,197.7132 273.70658,228.1537 253.36377,228.1537 C 233.02096,228.1537 216.51086,197.7132 216.51086,160.20615 C 216.51086,122.6991 233.02096,92.258591 253.36377,92.258591 C 273.70658,92.258591 290.21668,122.6991 290.21668,160.20615 z"
         id="path2394" />
      <path
         id="use4256"
         d="M 452.41631,277.37385 C 416.80162,289.13703 383.85164,286.43622 378.86724,271.34524 C 373.88284,256.25427 398.74221,234.4596 434.3569,222.69642 C 469.9716,210.93324 502.92159,213.63405 507.90599,228.72503 C 512.89039,243.816 488.03101,265.61068 452.41631,277.37385 z"
         style="fill:#000000;fill-opacity:1;stroke:none;stroke-width:24.73937035;stroke-linecap:round;stroke-linejoin:miter;stroke-miterlimit:6.9000001;stroke-dashoffset:0;stroke-opacity:1" />
      <path
         id="use4258"
         d="M 366.02527,165.62907 C 346.08475,197.39626 340.82574,230.03578 354.28642,238.48516 C 367.74709,246.93453 394.8553,228.00993 414.79582,196.24274 C 434.73635,164.47555 439.99536,131.83602 426.53468,123.38665 C 413.07401,114.93727 385.96579,133.86188 366.02527,165.62907 z"
         style="fill:#000000;fill-opacity:1;stroke:none;stroke-width:24.73937035;stroke-linecap:round;stroke-linejoin:miter;stroke-miterlimit:6.9000001;stroke-dashoffset:0;stroke-opacity:1" />
      <path
         id="use4260"
         d="M 200.58483,278.84227 C 238.07126,277.59876 268.92266,289.48097 269.44957,305.36505 C 269.97648,321.24914 239.98035,335.14978 202.49392,336.39328 C 165.00748,337.63679 134.15607,325.75458 133.62916,309.8705 C 133.10226,293.98641 163.0984,280.08577 200.58483,278.84227 z"
         style="fill:#000000;fill-opacity:1;stroke:none;stroke-width:24.73937035;stroke-linecap:round;stroke-linejoin:miter;stroke-miterlimit:6.9000001;stroke-dashoffset:0;stroke-opacity:1" />
      <path
         id="use4266"
         d="M 374.42559,399.08828 C 384.28938,435.27508 379.85029,468.03619 364.51689,472.21576 C 349.1835,476.39533 328.73362,450.41846 318.86983,414.23166 C 309.00604,378.04486 313.44513,345.28375 328.77852,341.10417 C 344.11191,336.9246 364.56179,362.90148 374.42559,399.08828 z"
         style="fill:#000000;fill-opacity:1;stroke:none;stroke-width:24.73937035;stroke-linecap:round;stroke-linejoin:miter;stroke-miterlimit:6.9000001;stroke-dashoffset:0;stroke-opacity:1" />
      <path
         id="use4268"
         d="M 439.30353,316.01445 C 405.23354,300.3296 372.18859,299.31638 365.54246,313.75282 C 358.89634,328.18926 381.15338,352.63552 415.22337,368.32037 C 449.29335,384.00523 482.33832,385.01845 488.98444,370.58201 C 495.63057,356.14557 473.37352,331.69931 439.30353,316.01445 z"
         style="fill:#000000;fill-opacity:1;stroke:none;stroke-width:24.73937035;stroke-linecap:round;stroke-linejoin:miter;stroke-miterlimit:6.9000001;stroke-dashoffset:0;stroke-opacity:1" />
      <path
         id="use4270"
         d="M 269.01135,406.87134 C 247.73206,437.75775 219.8402,455.50711 206.75274,446.49046 C 193.66527,437.47381 200.31372,405.08872 221.59302,374.20232 C 242.87232,343.31591 270.76418,325.56654 283.85164,334.58319 C 296.93911,343.59984 290.29065,375.98494 269.01135,406.87134 z"
         style="fill:#000000;fill-opacity:1;stroke:none;stroke-width:24.73937035;stroke-linecap:round;stroke-linejoin:miter;stroke-miterlimit:6.9000001;stroke-dashoffset:0;stroke-opacity:1" />
      <path
         id="use4272"
         d="M 190.55579,240.3446 C 219.93966,263.65484 251.80372,272.4683 261.68094,260.01751 C 271.55816,247.56671 255.72668,218.54328 226.34282,195.23304 C 196.95895,171.9228 165.09488,163.10933 155.21766,175.56012 C 145.34043,188.01092 161.17192,217.03436 190.55579,240.3446 z"
         style="fill:#000000;fill-opacity:1;stroke:none;stroke-width:24.73937035;stroke-linecap:round;stroke-linejoin:miter;stroke-miterlimit:6.9000001;stroke-dashoffset:0;stroke-opacity:1" />
      <path
         style="fill:none;fill-opacity:1;stroke:#000000;stroke-width:24.73937035;stroke-linecap:round;stroke-linejoin:miter;stroke-miterlimit:6.9000001;stroke-dashoffset:0;stroke-opacity:1"
         d="M 382.34897,289.19135 C 382.34897,324.15555 353.97223,352.53229 319.00803,352.53229 C 284.04383,352.53229 255.66708,324.15555 255.66708,289.19135 C 255.66708,254.22715 284.04383,225.8504 319.00803,225.8504 C 352.04049,225.8504 379.24746,250.79305 382.11059,283.70119"
         id="path4278" />
    </g>
    <g
       id="petal2"
       transform="matrix(0.3003328,0,0,0.3003328,75.47459,-3.1783317)">
      <path
         transform="translate(127.43142,575.08188)"
         style="fill:#000000;fill-opacity:1;stroke:#000000;stroke-width:0.012;stroke-miterlimit:4;stroke-opacity:1"
         d="M 226.88883,169.66413 C 217.5107,176.17284 192.78396,101.32322 183.12325,107.40463 C 173.46255,113.48603 230.26193,168.14595 220.33811,173.7878 C 210.4143,179.42966 192.49656,102.66488 182.32962,107.85582 C 172.16268,113.04676 223.83372,172.57809 213.44412,177.30767 C 203.05453,182.03725 192.09007,103.97537 181.49874,108.23406 C 170.90741,112.49274 217.03409,176.41618 206.26237,180.1954 C 195.49064,183.97462 191.56773,105.24415 180.6373,108.53629 C 169.70686,111.82843 209.9178,179.62929 198.85067,182.42773 C 187.78354,185.22617 190.93377,106.46099 179.75223,108.76009 C 168.57069,111.05918 202.54213,182.19158 191.2687,183.9867 C 179.99528,185.78182 190.19328,107.61612 178.85067,108.90365 C 167.50805,110.19118 194.96647,184.08239 183.57752,184.85975 C 172.18856,185.6371 189.35223,108.70021 177.93986,108.96581 C 166.5275,109.23142 187.25182,185.28652 175.83903,185.03985 C 164.42624,184.79317 188.41739,109.70455 177.02715,108.94609 C 165.63692,108.18763 179.46029,185.79427 168.11556,184.52555 C 156.77082,183.25683 187.39628,110.62104 176.11989,108.84462 C 164.8435,107.06821 171.65461,185.60154 160.46928,183.321 C 149.28394,181.04045 186.29713,111.44232 175.22537,108.66224 C 164.15361,105.88217 163.89763,184.7099 152.96175,181.43589 C 142.02587,178.16188 185.12878,112.16176 174.3508,108.40041 C 163.57282,104.63906 156.2518,183.12651 145.65343,178.8854 C 135.05505,174.64428 183.90065,112.77358 173.50322,108.06124 C 163.10579,103.3489 148.77869,180.86413 138.60315,175.69006 C 128.42761,170.51599 182.62262,113.27284 172.68946,107.64746 C 162.7563,102.02207 141.53846,177.94097 131.86769,171.8756 C 122.19691,165.81023 181.30498,113.65554 171.91606,107.16239 C 162.52715,100.66925 134.58941,174.38058 125.50126,167.47274 C 116.41311,160.56491 179.95834,113.91858 171.18926,106.60996 C 162.42018,99.301341 127.98748,170.2116 119.55513,162.51692 C 111.12278,154.82224 178.59354,114.05984 170.5149,105.9946 C 162.43627,97.929347 121.78583,165.46762 114.07718,157.04805 C 106.36852,148.62847 177.22158,114.0782 169.89842,105.32126 C 162.57527,96.564317 116.0344,160.18683 109.1115,151.11015 C 102.1886,142.03347 175.85349,113.97351 169.34478,104.59538 C 162.83608,95.217243 110.77949,154.41174 104.69809,144.75103 C 98.616685,135.09033 174.50029,113.7466 168.85844,103.82279 C 163.21658,93.898971 106.06341,148.18885 100.87247,138.0219 C 95.681524,127.85496 173.17288,113.39931 168.4433,103.00971 C 163.71373,92.620113 101.92413,141.56826 97.66544,130.97694 C 93.406753,120.38561 171.88195,112.93442 168.10273,102.1627 C 164.32351,91.390968 98.394973,134.60329 95.10283,123.67286 C 91.810686,112.74242 170.63788,112.35569 167.83945,101.28856 C 165.04101,90.221431 95.504363,127.35 93.205269,116.16847 C 90.906176,104.98693 169.4507,111.66777 167.65558,100.39435 C 165.86046,89.120919 93.275568,119.86681 91.988036,108.52419 C 90.700503,97.18158 168.32997,110.87621 167.55261,99.487249 C 166.77526,88.098292 91.726535,112.21395 91.46093,100.80158 C 91.195324,89.389217 167.2847,109.98736 167.53137,98.574574 C 167.77805,87.161784 90.869735,104.45304 91.628196,93.062809 C 92.386656,81.672579 166.32331,109.0084 167.59203,97.663669 C 168.86075,86.318935 90.712067,96.646574 92.488486,85.370185 C 94.264905,74.093795 165.45355,107.9472 167.73409,96.761868 C 170.01464,85.576532 91.254799,88.857401 94.034875,77.785644 C 96.814951,66.713887 164.68241,106.81231 167.95642,95.876432 C 171.23043,84.940551 92.493563,81.148235 96.254912,70.370254 C 100.01626,59.592273 164.01611,105.61287 168.25723,95.01449 C 172.49834,84.416114 94.418384,73.581145 99.130721,63.183718 C 103.84306,52.786291 163.46001,104.35852 168.63409,94.182982 C 173.80816,84.007442 97.013765,66.217059 102.63915,56.283899 C 108.26454,46.350739 163.01859,103.05938 169.08396,93.388602 C 175.14933,83.717826 100.25881,59.115266 106.75195,49.72635 C 113.24509,40.337433 162.6954,101.7259 169.60323,92.637747 C 176.51107,83.549599 104.12739,52.332946 111.43601,43.563868 C 118.74462,34.794789 162.49304,100.36881 170.18772,91.936462 C 177.8824,83.504113 108.58836,45.924707 116.65361,37.84607 C 124.71886,29.767432 162.41315,98.99905 170.83272,91.290393 C 179.25229,83.581737 113.6058,39.942144 122.36274,32.618992 C 131.11969,25.29584 162.45636,97.627641 171.53303,90.704742 C 180.60971,83.781843 119.13932,34.433424 128.51745,27.92472 C 137.89558,21.416015 162.62233,96.265627 172.28303,90.184225 C 181.94373,84.102823 125.14435,29.442902 135.06817,23.801049 C 144.99198,18.159196 162.90972,94.923974 173.07666,89.733032 C 183.2436,84.54209 131.57256,25.010757 141.96216,20.281181 C 152.35175,15.551604 163.31621,93.613483 173.90754,89.354796 C 184.49887,85.096109 138.37219,21.172676 149.14391,17.393455 C 159.91564,13.614234 163.83855,92.344706 174.76898,89.052562 C 185.69942,85.760419 145.48848,17.959558 156.55561,15.161122 C 167.62274,12.362686 164.47251,91.127858 175.65405,88.828764 C 186.83559,86.529671 152.86415,15.397276 164.13758,13.602155 C 175.411,11.807034 165.213,89.972737 176.55561,88.685204 C 187.89823,87.397672 160.43981,13.506458 171.82876,12.729106 C 183.21772,11.951755 166.05405,88.888643 177.46642,88.623037 C 188.87878,88.357432 168.15446,12.302329 179.56725,12.549005 C 190.98004,12.795681 166.9889,87.884304 178.37913,88.642765 C 189.76936,89.401225 175.94599,11.794584 187.29072,13.063301 C 198.63546,14.332018 168.01,86.967808 179.28639,88.744227 C 190.56278,90.520647 183.75167,11.98731 194.93701,14.267854 C 206.12234,16.548398 169.10915,86.146532 180.18091,88.926608 C 191.25267,91.706684 191.50865,12.878956 202.44453,16.152965 C 213.38041,19.426973 170.2775,85.42709 181.05548,89.188439 C 191.83346,92.949787 199.15448,14.462343 209.75285,18.703456 C 220.35123,22.944569 171.50563,84.815274 181.90306,89.527611 C 192.30049,94.239948 206.62759,16.724722 216.80313,21.898793 C 226.97867,27.072864 172.78366,84.316009 182.71682,89.941394 C 192.64998,95.566779 213.86782,19.647878 223.5386,25.713248 C 233.20937,31.778618 174.1013,83.933317 183.49022,90.426457 C 192.87913,96.919598 220.81687,23.208275 229.90502,30.11611 C 238.99317,37.023944 175.44794,83.670277 184.21702,90.978894 C 192.9861,98.287511 227.4188,27.377248 235.85115,35.071929 C 244.2835,42.76661 176.81274,83.529008 184.89138,91.594257 C 192.97001,99.659505 233.62045,32.12123 241.3291,40.540804 C 249.03776,48.960378 178.18471,83.510647 185.50786,92.267591 C 192.83101,101.02453 239.37188,37.402025 246.29478,46.478704 C 253.21768,55.555382 179.55279,83.615342 186.0615,92.993475 C 192.5702,102.37161 244.62679,43.177116 250.70819,52.837818 C 256.7896,62.49852 180.90599,83.84225 186.54784,93.766066 C 192.1897,103.68988 249.34287,49.400005 254.53381,59.566948 C 259.72476,69.733892 182.2334,84.189545 186.96298,94.579142 C 191.69255,104.96874 253.48215,56.020589 257.74084,66.611915 C 261.99953,77.203242 183.52433,84.654429 187.30355,95.426156 C 191.08277,106.19788 257.01131,62.985562 260.30345,73.915997 C 263.59559,84.846432 184.7684,85.23316 187.56683,96.300291 C 190.36527,107.36742 259.90192,70.238847 262.20101,81.420385 C 264.5001,92.601923 185.95558,85.921079 187.7507,97.194506 C 189.54582,108.46793 262.13071,77.722045 263.41824,89.064658 C 264.70578,100.40727 187.07631,86.712646 187.85367,98.101603 C 188.63102,109.49056 263.67975,85.374905 263.94535,96.78727 C 264.21096,108.19964 188.12158,87.601489 187.87491,99.014278 C 187.62823,110.42707 264.53655,93.135812 263.77808,104.52604 C 263.01962,115.91627 189.08297,88.58045 187.81425,99.925183 C 186.54553,111.26992 264.69421,100.94228 262.91779,112.21867 C 261.14138,123.49506 189.95273,89.641649 187.67219,100.82698 C 185.39164,112.01232 264.15148,108.73145 261.37141,119.80321 C 258.59133,130.87496 190.72387,90.77654 187.44986,101.71242 C 184.17585,112.6483 262.91272,116.44062 259.15137,127.2186 C 255.39002,137.99658 191.39017,91.975986 187.14905,102.57436 C 182.90794,113.17274 260.9879,124.00771 256.27556,134.40513 C 251.56322,144.80256 191.94627,93.230331 186.7722,103.40587 C 181.59812,113.58141 258.39252,131.37179 252.76713,141.30495 C 247.14175,151.23811 192.38769,94.529474 186.32232,104.20025 C 180.25695,113.87103 255.14747,138.47359 248.65433,147.8625 C 242.16119,157.25142 192.71088,95.862957 185.80305,104.9511 C 178.89521,114.03925 251.27889,145.25591 243.97027,154.02498 C 236.66166,162.79406 192.91324,97.220041 185.21856,105.65239 C 177.52388,114.08474 246.81792,151.66414 238.75267,159.74278 C 230.68742,167.82142 192.99313,98.589802 184.57356,106.29846 C 176.15399,114.00712 241.80048,157.64671 233.04354,164.96986 C 224.28659,172.29301 192.94992,99.96121 183.87325,106.88411 C 174.79657,113.80701 236.26697,163.15543 226.88883,169.66413 z"
         id="path2511" />
      <path
         transform="matrix(0.3554611,0,0,0.350366,120.56574,468.15795)"
         style="fill:#000000;fill-opacity:1;stroke:#000000;stroke-width:0.012;stroke-miterlimit:4;stroke-opacity:1"
         d="M 663.47071,587.51619 C 663.33112,666.93755 598.75991,731.28218 519.33855,731.14258 C 439.91718,731.00299 375.57256,666.43178 375.71215,587.01042 C 375.85174,507.58906 440.42295,443.24443 519.84432,443.38403 C 599.21944,443.52354 663.53781,508.0094 663.47088,587.38462"
         id="path2513" />
    </g>
    <g
       id="petal3"
       transform="matrix(0.3649159,0,0,0.3649159,41.399195,222.63834)">
      <g
         id="g5404"
         transform="matrix(0.2305246,0,0,0.2305246,245.70342,38.482455)">
        <path
           style="fill:#000000;fill-opacity:1;stroke:#000000;stroke-width:0.012;stroke-miterlimit:4;stroke-opacity:1"
           d="M 666.82725,722.19987 C 527.54429,856.61261 617.37695,398.87137 453.19168,501.38831 C 289.00641,603.90525 739.72013,724.13046 557.80823,790.27112 C 375.89633,856.41178 644.14269,474.78259 452.45459,501.65631 C 260.76648,528.53003 623.61395,821.683 430.52733,808.11527 C 237.44071,794.54753 637.71853,555.01754 451.67221,501.60133 C 265.62588,448.18512 477.86749,863.57705 306.99258,772.64691 C 136.11767,681.71676 599.21528,625.70288 450.97983,501.23289 C 302.74439,376.76289 327.68162,842.56874 208.56425,689.99883 C 89.44687,537.42892 535.29049,674.61647 450.49718,500.61468 C 365.70387,326.6129 199.02485,762.2906 152.26149,574.46165 C 105.49813,386.6327 456.99733,693.30069 450.30769,499.85361 C 443.61805,306.40652 114.14311,636.62345 147.81957,446.01279 C 181.49603,255.40213 377.87342,678.52489 450.44415,499.08126 C 523.01488,319.63763 87.713215,487.29627 196.00653,326.86222 C 304.29984,166.42817 311.59999,632.84393 450.88295,498.43119 C 590.1659,364.01845 124.30514,340.12911 288.49041,237.61217 C 452.67568,135.09523 269.63632,564.15646 451.54822,498.0158 C 633.46012,431.87514 217.5918,220.56849 409.27991,193.69477 C 600.96801,166.82105 259.23831,484.33918 452.32493,497.90691 C 645.41155,511.47464 351.4431,149.28753 537.48942,202.70374 C 723.53574,256.11996 282.20387,407.1932 453.07878,498.12335 C 623.95369,589.05349 502.71491,138.61136 650.95036,263.08136 C 799.1858,387.55135 334.56204,346.05779 453.67942,498.62769 C 572.7968,651.1976 645.25099,190.38599 730.04429,364.38777 C 814.8376,538.38956 407.25963,311.50379 454.023,499.33274 C 500.78637,687.16169 754.40553,295.6591 761.09517,489.10619 C 767.78481,682.55328 487.72656,309.50592 454.0501,500.11658 C 420.37365,690.72724 811.30473,436.22804 738.734,615.67166 C 666.16327,795.11529 562.04936,340.40962 453.75605,500.84367 C 345.46274,661.27773 806.11021,587.78714 666.82725,722.19987 z"
           id="path5386" />
        <path
           transform="matrix(1.167261,0,0,1.1505298,-152.9471,-175.96426)"
           style="fill:#000000;fill-opacity:1;stroke:#000000;stroke-width:0.012;stroke-miterlimit:4;stroke-opacity:1"
           d="M 663.47071,587.51619 C 663.33112,666.93755 598.75991,731.28218 519.33855,731.14258 C 439.91718,731.00299 375.57256,666.43178 375.71215,587.01042 C 375.85174,507.58906 440.42295,443.24443 519.84432,443.38403 C 599.21944,443.52354 663.53781,508.0094 663.47088,587.38462"
           id="path5390" />
      </g>
      <path
         transform="matrix(0.2305246,0,0,0.2305246,245.70342,38.482455)"
         style="fill:#000000;fill-opacity:1;stroke:#000000;stroke-width:0.012;stroke-miterlimit:4;stroke-opacity:1"
         d="M 666.82725,722.19987 C 527.54429,856.61261 617.37695,398.87137 453.19168,501.38831 C 289.00641,603.90525 739.72013,724.13046 557.80823,790.27112 C 375.89633,856.41178 644.14269,474.78259 452.45459,501.65631 C 260.76648,528.53003 623.61395,821.683 430.52733,808.11527 C 237.44071,794.54753 637.71853,555.01754 451.67221,501.60133 C 265.62588,448.18512 477.86749,863.57705 306.99258,772.64691 C 136.11767,681.71676 599.21528,625.70288 450.97983,501.23289 C 302.74439,376.76289 327.68162,842.56874 208.56425,689.99883 C 89.44687,537.42892 535.29049,674.61647 450.49718,500.61468 C 365.70387,326.6129 199.02485,762.2906 152.26149,574.46165 C 105.49813,386.6327 456.99733,693.30069 450.30769,499.85361 C 443.61805,306.40652 114.14311,636.62345 147.81957,446.01279 C 181.49603,255.40213 377.87342,678.52489 450.44415,499.08126 C 523.01488,319.63763 87.713215,487.29627 196.00653,326.86222 C 304.29984,166.42817 311.59999,632.84393 450.88295,498.43119 C 590.1659,364.01845 124.30514,340.12911 288.49041,237.61217 C 452.67568,135.09523 269.63632,564.15646 451.54822,498.0158 C 633.46012,431.87514 217.5918,220.56849 409.27991,193.69477 C 600.96801,166.82105 259.23831,484.33918 452.32493,497.90691 C 645.41155,511.47464 351.4431,149.28753 537.48942,202.70374 C 723.53574,256.11996 282.20387,407.1932 453.07878,498.12335 C 623.95369,589.05349 502.71491,138.61136 650.95036,263.08136 C 799.1858,387.55135 334.56204,346.05779 453.67942,498.62769 C 572.7968,651.1976 645.25099,190.38599 730.04429,364.38777 C 814.8376,538.38956 407.25963,311.50379 454.023,499.33274 C 500.78637,687.16169 754.40553,295.6591 761.09517,489.10619 C 767.78481,682.55328 487.72656,309.50592 454.0501,500.11658 C 420.37365,690.72724 811.30473,436.22804 738.734,615.67166 C 666.16327,795.11529 562.04936,340.40962 453.75605,500.84367 C 345.46274,661.27773 806.11021,587.78714 666.82725,722.19987 z"
         id="path2429" />
      <path
         transform="matrix(0.2690824,0,0,0.2652254,210.44535,-2.0816357)"
         style="fill:#000000;fill-opacity:1;stroke:#000000;stroke-width:0.012;stroke-miterlimit:4;stroke-opacity:1"
         d="M 663.47071,587.51619 C 663.33112,666.93755 598.75991,731.28218 519.33855,731.14258 C 439.91718,731.00299 375.57256,666.43178 375.71215,587.01042 C 375.85174,507.58906 440.42295,443.24443 519.84432,443.38403 C 599.21944,443.52354 663.53781,508.0094 663.47088,587.38462"
         id="path2431" />
    </g>
    <g
       id="petal4"
       transform="matrix(0.2448439,0,0,0.2448439,24.016184,324.57325)">
      <path
         style="fill:#000000;fill-opacity:1;stroke:#000000;stroke-width:0.012;stroke-miterlimit:4;stroke-opacity:1"
         d="M 279.15491,343.48077 C 279.15491,355.35442 269.51833,364.991 257.64468,364.991 C 245.77104,364.991 236.13446,355.35442 236.13446,343.48077 C 236.13446,331.60713 245.77104,321.97055 257.64468,321.97055 C 269.51833,321.97055 279.15491,331.60713 279.15491,343.48077 z"
         id="path8549"
         transform="matrix(1.8419979,0,0,1.8419979,117.84876,-478.38856)" />
      <g
         transform="matrix(0.9967854,8.0117897e-2,-8.0117897e-2,0.9967854,501.52174,-262.59574)"
         id="g8665">
        <g
           id="g5374"
           transform="matrix(0.2539136,-0.9672268,0.9672268,0.2539136,-72.718758,812.67261)"
           inkscape:tile-cx="106.50626"
           inkscape:tile-cy="467.60681"
           inkscape:tile-w="31.633311"
           inkscape:tile-h="89.874511"
           inkscape:tile-x0="90.689605"
           inkscape:tile-y0="422.66955">
          <path
             transform="matrix(3.0916263,0,0,0.6069157,-751.71594,43.956477)"
             style="fill:#000000;fill-opacity:1;stroke:#000000;stroke-width:0.012;stroke-miterlimit:4;stroke-opacity:1"
             d="M 380.63171,69.949586 C 378.60141,73.559016 353.16377,73.844167 351.05307,70.281156 C 348.94236,66.718146 361.41423,44.545933 365.55524,44.499513 C 369.69625,44.453093 382.66202,66.340156 380.63171,69.949586 z"
             id="path5376" />
          <path
             style="fill:#000000;fill-opacity:1;stroke:#000000;stroke-width:0.01927674;stroke-miterlimit:4;stroke-opacity:1"
             d="M 424.89986,85.378721 C 416.78084,83.833736 311.86243,92.866674 302.90177,95.882134 C 340.92984,115.65862 388.53594,105.55636 424.89986,85.378721 z"
             id="path5378"
             sodipodi:nodetypes="ccc" />
        </g>
        <g
           inkscape:tile-y0="422.66955"
           inkscape:tile-x0="90.689605"
           transform="matrix(0.2539136,0.9672268,0.9672268,-0.2539136,-41.085447,122.541)"
           id="use8611">
          <path
             id="path2488"
             d="M 380.63171,69.949586 C 378.60141,73.559016 353.16377,73.844167 351.05307,70.281156 C 348.94236,66.718146 361.41423,44.545933 365.55524,44.499513 C 369.69625,44.453093 382.66202,66.340156 380.63171,69.949586 z"
             style="fill:#000000;fill-opacity:1;stroke:#000000;stroke-width:0.012;stroke-miterlimit:4;stroke-opacity:1"
             transform="matrix(3.0916263,0,0,0.6069157,-751.71594,43.956477)" />
          <path
             sodipodi:nodetypes="ccc"
             id="path2490"
             d="M 424.89986,85.378721 C 416.78084,83.833736 311.86243,92.866674 302.90177,95.882134 C 340.92984,115.65862 388.53594,105.55636 424.89986,85.378721 z"
             style="fill:#000000;fill-opacity:1;stroke:#000000;stroke-width:0.01927674;stroke-miterlimit:4;stroke-opacity:1" />
        </g>
      </g>
      <g
         id="g8684"
         transform="matrix(0.5972854,-0.8020288,0.8020288,0.5972854,191.49331,7.33081)">
        <g
           inkscape:tile-y0="422.66955"
           inkscape:tile-x0="90.689605"
           transform="matrix(0.2539136,-0.9672268,0.9672268,0.2539136,-72.718758,812.67261)"
           id="use8680">
          <path
             id="path2452"
             d="M 380.63171,69.949586 C 378.60141,73.559016 353.16377,73.844167 351.05307,70.281156 C 348.94236,66.718146 361.41423,44.545933 365.55524,44.499513 C 369.69625,44.453093 382.66202,66.340156 380.63171,69.949586 z"
             style="fill:#000000;fill-opacity:1;stroke:#000000;stroke-width:0.012;stroke-miterlimit:4;stroke-opacity:1"
             transform="matrix(3.0916263,0,0,0.6069157,-751.71594,43.956477)" />
          <path
             sodipodi:nodetypes="ccc"
             id="path2454"
             d="M 424.89986,85.378721 C 416.78084,83.833736 311.86243,92.866674 302.90177,95.882134 C 340.92984,115.65862 388.53594,105.55636 424.89986,85.378721 z"
             style="fill:#000000;fill-opacity:1;stroke:#000000;stroke-width:0.01927674;stroke-miterlimit:4;stroke-opacity:1" />
        </g>
        <g
           inkscape:tile-y0="422.66955"
           inkscape:tile-x0="90.689605"
           transform="matrix(0.2539136,0.9672268,0.9672268,-0.2539136,-41.085447,122.541)"
           id="use8682">
          <path
             id="path2482"
             d="M 380.63171,69.949586 C 378.60141,73.559016 353.16377,73.844167 351.05307,70.281156 C 348.94236,66.718146 361.41423,44.545933 365.55524,44.499513 C 369.69625,44.453093 382.66202,66.340156 380.63171,69.949586 z"
             style="fill:#000000;fill-opacity:1;stroke:#000000;stroke-width:0.012;stroke-miterlimit:4;stroke-opacity:1"
             transform="matrix(3.0916263,0,0,0.6069157,-751.71594,43.956477)" />
          <path
             sodipodi:nodetypes="ccc"
             id="path2484"
             d="M 424.89986,85.378721 C 416.78084,83.833736 311.86243,92.866674 302.90177,95.882134 C 340.92984,115.65862 388.53594,105.55636 424.89986,85.378721 z"
             style="fill:#000000;fill-opacity:1;stroke:#000000;stroke-width:0.01927674;stroke-miterlimit:4;stroke-opacity:1" />
        </g>
      </g>
      <g
         transform="matrix(-0.3960128,-0.918245,0.918245,-0.3960128,265.21449,427.19328)"
         id="g8688">
        <g
           inkscape:tile-y0="422.66955"
           inkscape:tile-x0="90.689605"
           transform="matrix(0.2539136,-0.9672268,0.9672268,0.2539136,-72.718758,812.67261)"
           id="use8690">
          <path
             id="path2458"
             d="M 380.63171,69.949586 C 378.60141,73.559016 353.16377,73.844167 351.05307,70.281156 C 348.94236,66.718146 361.41423,44.545933 365.55524,44.499513 C 369.69625,44.453093 382.66202,66.340156 380.63171,69.949586 z"
             style="fill:#000000;fill-opacity:1;stroke:#000000;stroke-width:0.012;stroke-miterlimit:4;stroke-opacity:1"
             transform="matrix(3.0916263,0,0,0.6069157,-751.71594,43.956477)" />
          <path
             sodipodi:nodetypes="ccc"
             id="path2460"
             d="M 424.89986,85.378721 C 416.78084,83.833736 311.86243,92.866674 302.90177,95.882134 C 340.92984,115.65862 388.53594,105.55636 424.89986,85.378721 z"
             style="fill:#000000;fill-opacity:1;stroke:#000000;stroke-width:0.01927674;stroke-miterlimit:4;stroke-opacity:1" />
        </g>
        <g
           inkscape:tile-y0="422.66955"
           inkscape:tile-x0="90.689605"
           transform="matrix(0.2539136,0.9672268,0.9672268,-0.2539136,-41.085447,122.541)"
           id="use8692">
          <path
             id="path2512"
             d="M 380.63171,69.949586 C 378.60141,73.559016 353.16377,73.844167 351.05307,70.281156 C 348.94236,66.718146 361.41423,44.545933 365.55524,44.499513 C 369.69625,44.453093 382.66202,66.340156 380.63171,69.949586 z"
             style="fill:#000000;fill-opacity:1;stroke:#000000;stroke-width:0.012;stroke-miterlimit:4;stroke-opacity:1"
             transform="matrix(3.0916263,0,0,0.6069157,-751.71594,43.956477)" />
          <path
             sodipodi:nodetypes="ccc"
             id="path2514"
             d="M 424.89986,85.378721 C 416.78084,83.833736 311.86243,92.866674 302.90177,95.882134 C 340.92984,115.65862 388.53594,105.55636 424.89986,85.378721 z"
             style="fill:#000000;fill-opacity:1;stroke:#000000;stroke-width:0.01927674;stroke-miterlimit:4;stroke-opacity:1" />
        </g>
      </g>
      <g
         id="g8694"
         transform="matrix(-0.9857713,-0.1680928,0.1680928,-0.9857713,641.79818,575.16412)"
         inkscape:transform-center-x="-20.07621"
         inkscape:transform-center-y="-12.42813">
        <g
           inkscape:tile-y0="422.66955"
           inkscape:tile-x0="90.689605"
           transform="matrix(0.2539136,-0.9672268,0.9672268,0.2539136,-72.718758,812.67261)"
           id="use8696">
          <path
             id="path2464"
             d="M 380.63171,69.949586 C 378.60141,73.559016 353.16377,73.844167 351.05307,70.281156 C 348.94236,66.718146 361.41423,44.545933 365.55524,44.499513 C 369.69625,44.453093 382.66202,66.340156 380.63171,69.949586 z"
             style="fill:#000000;fill-opacity:1;stroke:#000000;stroke-width:0.012;stroke-miterlimit:4;stroke-opacity:1"
             transform="matrix(3.0916263,0,0,0.6069157,-751.71594,43.956477)" />
          <path
             sodipodi:nodetypes="ccc"
             id="path2466"
             d="M 424.89986,85.378721 C 416.78084,83.833736 311.86243,92.866674 302.90177,95.882134 C 340.92984,115.65862 388.53594,105.55636 424.89986,85.378721 z"
             style="fill:#000000;fill-opacity:1;stroke:#000000;stroke-width:0.01927674;stroke-miterlimit:4;stroke-opacity:1" />
        </g>
        <g
           inkscape:tile-y0="422.66955"
           inkscape:tile-x0="90.689605"
           transform="matrix(0.2539136,0.9672268,0.9672268,-0.2539136,-41.085447,122.541)"
           id="use8698">
          <path
             id="path2506"
             d="M 380.63171,69.949586 C 378.60141,73.559016 353.16377,73.844167 351.05307,70.281156 C 348.94236,66.718146 361.41423,44.545933 365.55524,44.499513 C 369.69625,44.453093 382.66202,66.340156 380.63171,69.949586 z"
             style="fill:#000000;fill-opacity:1;stroke:#000000;stroke-width:0.012;stroke-miterlimit:4;stroke-opacity:1"
             transform="matrix(3.0916263,0,0,0.6069157,-751.71594,43.956477)" />
          <path
             sodipodi:nodetypes="ccc"
             id="path2508"
             d="M 424.89986,85.378721 C 416.78084,83.833736 311.86243,92.866674 302.90177,95.882134 C 340.92984,115.65862 388.53594,105.55636 424.89986,85.378721 z"
             style="fill:#000000;fill-opacity:1;stroke:#000000;stroke-width:0.01927674;stroke-miterlimit:4;stroke-opacity:1" />
        </g>
      </g>
      <g
         transform="matrix(-0.6247647,0.7808132,-0.7808132,-0.6247647,987.10987,313.44659)"
         id="g8706">
        <g
           inkscape:tile-y0="422.66955"
           inkscape:tile-x0="90.689605"
           transform="matrix(0.2539136,-0.9672268,0.9672268,0.2539136,-72.718758,812.67261)"
           id="use8702">
          <path
             id="path2470"
             d="M 380.63171,69.949586 C 378.60141,73.559016 353.16377,73.844167 351.05307,70.281156 C 348.94236,66.718146 361.41423,44.545933 365.55524,44.499513 C 369.69625,44.453093 382.66202,66.340156 380.63171,69.949586 z"
             style="fill:#000000;fill-opacity:1;stroke:#000000;stroke-width:0.012;stroke-miterlimit:4;stroke-opacity:1"
             transform="matrix(3.0916263,0,0,0.6069157,-751.71594,43.956477)" />
          <path
             sodipodi:nodetypes="ccc"
             id="path2472"
             d="M 424.89986,85.378721 C 416.78084,83.833736 311.86243,92.866674 302.90177,95.882134 C 340.92984,115.65862 388.53594,105.55636 424.89986,85.378721 z"
             style="fill:#000000;fill-opacity:1;stroke:#000000;stroke-width:0.01927674;stroke-miterlimit:4;stroke-opacity:1" />
        </g>
        <g
           inkscape:tile-y0="422.66955"
           inkscape:tile-x0="90.689605"
           transform="matrix(0.2539136,0.9672268,0.9672268,-0.2539136,-41.085447,122.541)"
           id="use8704">
          <path
             id="path2500"
             d="M 380.63171,69.949586 C 378.60141,73.559016 353.16377,73.844167 351.05307,70.281156 C 348.94236,66.718146 361.41423,44.545933 365.55524,44.499513 C 369.69625,44.453093 382.66202,66.340156 380.63171,69.949586 z"
             style="fill:#000000;fill-opacity:1;stroke:#000000;stroke-width:0.012;stroke-miterlimit:4;stroke-opacity:1"
             transform="matrix(3.0916263,0,0,0.6069157,-751.71594,43.956477)" />
          <path
             sodipodi:nodetypes="ccc"
             id="path2502"
             d="M 424.89986,85.378721 C 416.78084,83.833736 311.86243,92.866674 302.90177,95.882134 C 340.92984,115.65862 388.53594,105.55636 424.89986,85.378721 z"
             style="fill:#000000;fill-opacity:1;stroke:#000000;stroke-width:0.01927674;stroke-miterlimit:4;stroke-opacity:1" />
        </g>
      </g>
      <g
         id="g8710"
         transform="matrix(0.4284829,0.9035502,-0.9035502,0.4284829,909.28321,-134.22762)">
        <g
           inkscape:tile-y0="422.66955"
           inkscape:tile-x0="90.689605"
           transform="matrix(0.2539136,-0.9672268,0.9672268,0.2539136,-72.718758,812.67261)"
           id="use8712">
          <path
             id="path2476"
             d="M 380.63171,69.949586 C 378.60141,73.559016 353.16377,73.844167 351.05307,70.281156 C 348.94236,66.718146 361.41423,44.545933 365.55524,44.499513 C 369.69625,44.453093 382.66202,66.340156 380.63171,69.949586 z"
             style="fill:#000000;fill-opacity:1;stroke:#000000;stroke-width:0.012;stroke-miterlimit:4;stroke-opacity:1"
             transform="matrix(3.0916263,0,0,0.6069157,-751.71594,43.956477)" />
          <path
             sodipodi:nodetypes="ccc"
             id="path2478"
             d="M 424.89986,85.378721 C 416.78084,83.833736 311.86243,92.866674 302.90177,95.882134 C 340.92984,115.65862 388.53594,105.55636 424.89986,85.378721 z"
             style="fill:#000000;fill-opacity:1;stroke:#000000;stroke-width:0.01927674;stroke-miterlimit:4;stroke-opacity:1" />
        </g>
        <g
           inkscape:tile-y0="422.66955"
           inkscape:tile-x0="90.689605"
           transform="matrix(0.2539136,0.9672268,0.9672268,-0.2539136,-41.085447,122.541)"
           id="use8714">
          <path
             id="path2494"
             d="M 380.63171,69.949586 C 378.60141,73.559016 353.16377,73.844167 351.05307,70.281156 C 348.94236,66.718146 361.41423,44.545933 365.55524,44.499513 C 369.69625,44.453093 382.66202,66.340156 380.63171,69.949586 z"
             style="fill:#000000;fill-opacity:1;stroke:#000000;stroke-width:0.012;stroke-miterlimit:4;stroke-opacity:1"
             transform="matrix(3.0916263,0,0,0.6069157,-751.71594,43.956477)" />
          <path
             sodipodi:nodetypes="ccc"
             id="path2496"
             d="M 424.89986,85.378721 C 416.78084,83.833736 311.86243,92.866674 302.90177,95.882134 C 340.92984,115.65862 388.53594,105.55636 424.89986,85.378721 z"
             style="fill:#000000;fill-opacity:1;stroke:#000000;stroke-width:0.01927674;stroke-miterlimit:4;stroke-opacity:1" />
        </g>
      </g>
    </g>
    <g
       id="petal5"
       transform="matrix(0.2714302,0,0,0.2714302,120.29299,329.60486)">
      <path
         sodipodi:nodetypes="cczczczczczczczczcz"
         id="path2409"
         d="M 220.83831,418.52758 C 208.05717,428.11344 177.34938,387.79024 177.34938,387.79024 C 177.34938,387.79024 174.21017,438.37753 158.25757,437.50516 C 142.30497,436.63279 144.7007,386.00485 144.7007,386.00485 C 144.7007,386.00485 109.77904,422.7391 98.119387,411.8167 C 86.459737,400.8943 120.83798,363.65099 120.83798,363.65099 C 120.83798,363.65099 70.474117,369.34384 68.563093,353.48212 C 66.652069,337.6204 116.92687,331.18828 116.92687,331.18828 C 116.92687,331.18828 74.686612,303.17599 83.418402,289.79682 C 92.150192,276.41765 134.79741,303.80638 134.79741,303.80638 C 134.79741,303.80638 120.44545,255.19621 135.73435,250.55986 C 151.02325,245.92351 166.08778,294.3176 166.08778,294.3176 C 166.08778,294.3176 186.33955,247.85479 201.03172,254.13065 C 215.72389,260.40651 196.15687,307.16183 196.15687,307.16183 C 196.15687,307.16183 241.53634,284.58683 248.75715,298.83837 C 255.97796,313.08991 210.93501,336.32912 210.93501,336.32912 C 210.93501,336.32912 260.20863,348.20504 256.57938,363.76379 C 252.95013,379.32254 203.50736,368.17177 203.50736,368.17177 C 203.50736,368.17177 233.61945,408.94172 220.83831,418.52758 z"
         style="fill:#000000;fill-opacity:1;stroke:#000000;stroke-width:0.012;stroke-miterlimit:4;stroke-opacity:1"
         transform="translate(17.208179,80.304837)" />
      <path
         style="fill:#000000;fill-opacity:1;stroke:#000000;stroke-width:0.012;stroke-miterlimit:4;stroke-opacity:1"
         d="M 207.26132,514.78208 C 191.88571,519.12223 177.75883,470.44616 177.75883,470.44616 C 177.75883,470.44616 156.61331,516.50911 142.04511,509.9506 C 127.47691,503.39209 147.94347,457.02348 147.94347,457.02348 C 147.94347,457.02348 102.13637,478.71765 95.192211,464.32929 C 88.248053,449.94093 133.73151,427.57616 133.73151,427.57616 C 133.73151,427.57616 84.696496,414.75062 88.625624,399.26488 C 92.554753,383.77914 141.7729,395.88294 141.7729,395.88294 C 141.7729,395.88294 112.45399,354.5389 125.41792,345.20172 C 138.38186,335.86455 168.30497,376.77341 168.30497,376.77341 C 168.30497,376.77341 172.42082,326.25622 188.35358,327.43658 C 204.28635,328.61695 200.91307,379.18916 200.91307,379.18916 C 200.91307,379.18916 236.53782,343.13637 247.9843,354.28196 C 259.43079,365.42755 224.33952,401.99982 224.33952,401.99982 C 224.33952,401.99982 274.80395,397.28091 276.40822,413.17659 C 278.01248,429.07228 227.62281,434.53202 227.62281,434.53202 C 227.62281,434.53202 269.31406,463.35505 260.32545,476.56304 C 251.33685,489.77104 209.22666,461.5636 209.22666,461.5636 C 209.22666,461.5636 222.63693,510.44193 207.26132,514.78208 z"
         id="path2418"
         sodipodi:nodetypes="cczczczczczczczczcz" />
    </g>
    <path
       style="fill:#000000;fill-opacity:1;stroke:#000000;stroke-width:0.00186522;stroke-miterlimit:4;stroke-opacity:1"
       d="M 186.83666,508.9718 C 191.85486,509.48284 193.90145,526.48419 189.11742,528.08328 C 185.97299,529.13433 172.16839,522.36743 172.16839,522.36743 C 172.16839,522.36743 184.32963,522.55964 184.32963,522.55964 C 184.32963,522.55964 172.46772,520.62902 172.46772,520.62902 C 172.46772,520.62902 183.28901,515.45109 183.28901,515.45109 C 183.28901,515.45109 171.75496,518.60071 171.75496,518.60071 C 171.75496,518.60071 183.53831,508.63591 186.83666,508.9718 C 186.83666,508.9718 186.83666,508.9718 186.83666,508.9718 M 186.83341,533.2628 C 188.74862,537.92925 175.27155,547.80175 171.47403,544.48168 C 168.97801,542.29947 168.3375,526.80767 168.3375,526.80767 C 168.3375,526.80767 173.7825,537.61277 173.7825,537.61277 C 173.7825,537.61277 169.87239,526.15287 169.87239,526.15287 C 169.87239,526.15287 179.48689,533.217 179.48689,533.217 C 179.48689,533.217 170.8983,524.96114 170.8983,524.96114 C 170.8983,524.96114 185.57458,530.19565 186.83341,533.2628 C 186.83341,533.2628 186.83341,533.2628 186.83341,533.2628 M 165.89269,545.11814 C 162.85921,549.14832 147.7163,542.78487 148.50606,537.80291 C 149.02514,534.52839 161.74729,525.74898 161.74729,525.74898 C 161.74729,525.74898 155.50435,536.1636 155.50435,536.1636 C 155.50435,536.1636 163.11104,526.82518 163.11104,526.82518 C 163.11104,526.82518 162.19008,538.77958 162.19008,538.77958 C 162.19008,538.77958 164.83462,527.17008 164.83462,527.17008 C 164.83462,527.17008 167.88653,542.4692 165.89269,545.11814 C 165.89269,545.11814 165.89269,545.11814 165.89269,545.11814 M 145.02368,533.26236 C 140.00434,532.76262 137.94646,515.76296 142.72687,514.15306 C 145.86891,513.09491 159.68405,519.82942 159.68405,519.82942 C 159.68405,519.82942 147.51917,519.66438 147.51917,519.66438 C 147.51917,519.66438 159.3789,521.56836 159.3789,521.56836 C 159.3789,521.56836 148.56289,526.77229 148.56289,526.77229 C 148.56289,526.77229 160.08822,523.59723 160.08822,523.59723 C 160.08822,523.59723 148.32278,533.59083 145.02368,533.26236 C 145.02368,533.26236 145.02368,533.26236 145.02368,533.26236 M 145.00671,508.97174 C 143.081,504.30961 156.55174,494.42825 160.35658,497.73993 C 162.85742,499.91662 163.53127,515.40377 163.53127,515.40377 C 163.53127,515.40377 158.06118,504.60762 158.06118,504.60762 C 158.06118,504.60762 161.9934,516.05289 161.9934,516.05289 C 161.9934,516.05289 152.35869,509.00509 152.35869,509.00509 C 152.35869,509.00509 160.96319,517.23948 160.96319,517.23948 C 160.96319,517.23948 146.27243,512.03605 145.00671,508.97174 C 145.00671,508.97174 145.00671,508.97174 145.00671,508.97174 M 165.93737,497.09921 C 168.96196,493.06235 184.10872,499.41568 183.33011,504.39939 C 182.81834,507.67507 170.11808,516.48034 170.11808,516.48034 C 170.11808,516.48034 176.33978,506.04912 176.33978,506.04912 C 176.33978,506.04912 168.75689,515.39856 168.75689,515.39856 C 168.75689,515.39856 169.65327,503.43597 169.65327,503.43597 C 169.65327,503.43597 167.03485,515.0481 167.03485,515.0481 C 167.03485,515.0481 163.94938,499.75254 165.93737,497.09921 C 165.93737,497.09921 165.93737,497.09921 165.93737,497.09921"
       id="petal6" />
    <path
       style="fill:#000000;fill-opacity:1;stroke:#000000;stroke-width:0.10739688;stroke-miterlimit:4;stroke-dasharray:none;stroke-opacity:1"
       d="M 167.33323,621.59867 C 166.2455,620.44728 164.41646,618.76328 163.26871,617.85644 C 162.12095,616.94961 160.85376,615.91921 160.45274,615.56666 C 159.75459,614.95293 159.59502,614.92599 156.69952,614.9331 C 155.03628,614.93719 152.15111,615.16796 150.28801,615.44592 C 148.42492,615.72388 146.87932,615.91305 146.85333,615.8663 C 146.82734,615.81955 147.15206,614.11212 147.57493,612.07203 C 147.99779,610.03194 148.41508,607.36047 148.50223,606.13543 L 148.66068,603.90808 L 146.32293,601.25764 C 145.03715,599.79989 142.973,597.73855 141.73593,596.67688 C 140.49885,595.6152 139.50912,594.66803 139.53653,594.57205 C 139.56393,594.47608 140.68209,593.81333 142.02134,593.0993 C 143.36059,592.38527 145.77843,590.94059 147.39431,589.88891 L 150.33228,587.97676 L 151.03892,584.55885 C 151.42756,582.679 151.81769,579.88064 151.90588,578.3403 C 151.99406,576.79994 152.10942,575.51515 152.16224,575.48517 C 152.21505,575.45521 153.41727,576.0134 154.83383,576.72561 C 156.25038,577.43781 158.90159,578.5622 160.7254,579.22426 C 162.54921,579.88632 164.26002,580.56613 164.52719,580.73496 C 164.92465,580.98611 165.48778,580.74217 167.62435,579.39335 C 169.06061,578.48664 171.28039,576.85784 172.55718,575.7738 C 173.834,574.68977 174.99144,573.83502 175.1293,573.87438 C 175.26716,573.91373 175.7799,575.18746 176.26876,576.70488 C 176.7576,578.2223 177.67889,580.5854 178.31608,581.95622 C 178.95326,583.32704 179.63404,584.99381 179.82892,585.66016 C 180.18005,586.86084 180.19936,586.8778 181.97825,587.5488 C 182.9655,587.9212 185.43661,588.59541 187.46959,589.04705 C 189.50257,589.49868 191.19498,589.91937 191.2305,589.98189 C 191.26603,590.04441 190.522,591.25043 189.57708,592.66192 C 188.13058,594.82262 186.65206,597.52993 184.92255,601.18474 C 184.45783,602.1668 185.24839,604.57599 187.39241,608.71158 L 189.0691,611.94568 L 187.75207,612.04131 C 184.44459,612.2815 182.03349,612.62584 179.46546,613.22475 C 177.93769,613.58105 176.29444,613.84077 175.81378,613.80191 C 175.13846,613.74729 174.7988,613.90792 174.31896,614.50877 C 173.23267,615.86911 171.74873,618.60119 170.66575,621.23477 C 170.08829,622.63907 169.54721,623.76645 169.46336,623.74007 C 169.37951,623.71369 168.42095,622.75005 167.33323,621.59867 z"
       id="petal7" />
    <g
       id="petal8"
       inkscape:tile-cx="106.50626"
       inkscape:tile-cy="467.60681"
       inkscape:tile-w="31.633311"
       inkscape:tile-h="89.874511"
       inkscape:tile-x0="90.689605"
       inkscape:tile-y0="422.66955"
       transform="matrix(0.2794855,0,0,0.2794855,20.979991,431.6484)">
      <path
         d="M 583.65302,960.46605 C 578.8035,955.91888 526.16434,904.79736 521.07576,900.12442 C 515.98714,895.45148 556.69178,898.74074 568.40672,903.94914 C 580.12165,909.15755 588.50256,965.01325 583.65302,960.46605 C 583.65302,960.46605 583.65302,960.46605 583.65302,960.46605 M 520.69726,990.22104 C 520.37505,983.58094 520.1437,908.80641 520.19887,901.89793 C 520.25403,894.98943 545.10536,927.39467 549.09577,939.57843 C 553.08617,951.7622 521.01946,996.86116 520.69726,990.22104 C 520.69726,990.22104 520.69726,990.22104 520.69726,990.22104 M 455.87655,968.62509 C 460.1014,963.4923 509.81484,909.01278 514.50426,903.9394 C 519.19369,898.86599 515.77234,939.55964 510.52596,951.25759 C 505.27957,962.95553 451.65168,973.75789 455.87655,968.62509 C 455.87655,968.62509 455.87655,968.62509 455.87655,968.62509 M 423.52283,904.20454 C 430.16365,903.89705 503.43958,901.87293 510.33768,901.49103 C 517.23581,901.10912 486.46742,927.96021 474.56049,932.71322 C 462.65357,937.46623 416.88199,904.51201 423.52283,904.20454 C 423.52283,904.20454 423.52283,904.20454 423.52283,904.20454 M 447.30158,837.65209 C 452.1511,842.19926 504.72907,893.29376 509.81766,897.9667 C 514.90627,902.63965 474.20163,899.35038 462.4867,894.14198 C 450.77176,888.93358 442.45204,833.10489 447.30158,837.65209 C 447.30158,837.65209 447.30158,837.65209 447.30158,837.65209 M 510.28932,807.96608 C 510.61153,814.60617 510.82202,889.32397 510.76685,896.23244 C 510.71169,903.14095 485.86035,870.73571 481.86995,858.55194 C 477.87954,846.36818 509.96712,801.32595 510.28932,807.96608 C 510.28932,807.96608 510.28932,807.96608 510.28932,807.96608 M 575.08713,829.63136 C 570.86228,834.76415 521.17152,889.18773 516.4821,894.26111 C 511.79267,899.33452 515.21402,858.64087 520.4604,846.94292 C 525.70679,835.24498 579.31201,824.49856 575.08713,829.63136 C 575.08713,829.63136 575.08713,829.63136 575.08713,829.63136 M 607.36734,894.08882 C 600.72653,894.39631 527.51251,896.39549 520.61441,896.77738 C 513.71628,897.15929 544.48467,870.3082 556.3916,865.55519 C 568.29852,860.80218 614.00819,893.78135 607.36734,894.08882 C 607.36734,894.08882 607.36734,894.08882 607.36734,894.08882"
         id="{http://www.w3.org/2000/svg}path1509"
         style="fill:#000000;fill-opacity:1;stroke:#000000;stroke-width:0.012;stroke-miterlimit:4;stroke-dasharray:none;stroke-opacity:1" />
      <path
         style="fill:#000000;fill-opacity:1;stroke:#000000;stroke-width:0.012;stroke-miterlimit:4;stroke-dasharray:none;stroke-opacity:1"
         id="{http://www.w3.org/2000/svg}path7845"
         d="M 585.58647,958.86168 C 584.43675,952.27868 528.44419,900.55181 521.58432,900.10808 C 514.72443,899.66435 542.944,914.7072 549.18932,925.90426 C 555.43465,937.10131 586.7362,965.44472 585.58647,958.86168 C 585.58647,958.86168 585.58647,958.86168 585.58647,958.86168 M 523.1872,990.39823 C 526.94116,984.86961 524.80036,907.62881 520.52969,902.24216 C 516.25901,896.85549 522.6827,928.91966 519.78962,941.41 C 516.89655,953.90035 519.43323,995.92689 523.1872,990.39823 C 523.1872,990.39823 523.1872,990.39823 523.1872,990.39823 M 456.4506,969.56023 C 462.9946,968.20589 514.01581,911.31124 514.47474,904.4524 C 514.93368,897.59352 498.91331,925.08541 488.13364,932.02647 C 477.35397,938.96753 449.90658,970.91458 456.4506,969.56023 C 456.4506,969.56023 456.4506,969.56023 456.4506,969.56023 M 423.32895,906.64988 C 428.84537,910.42178 504.86229,906.42726 509.96219,901.818 C 515.06211,897.20872 484.79883,906.35771 472.31988,903.41578 C 459.84093,900.47385 417.81249,902.87798 423.32895,906.64988 C 423.32895,906.64988 423.32895,906.64988 423.32895,906.64988 M 445.36562,839.25418 C 446.51534,845.83719 502.44598,897.53911 509.30585,897.98283 C 516.16575,898.42657 488.00809,883.40867 481.76277,872.21161 C 475.51744,861.01455 444.21589,832.67115 445.36562,839.25418 C 445.36562,839.25418 445.36562,839.25418 445.36562,839.25418 M 507.79916,807.78553 C 504.0452,813.31416 506.16333,890.49902 510.434,895.88567 C 514.70468,901.27234 508.30333,869.26078 511.19641,856.77044 C 514.08948,844.28009 511.55313,802.25688 507.79916,807.78553 C 507.79916,807.78553 507.79916,807.78553 507.79916,807.78553 M 574.51309,828.69622 C 567.96909,830.05056 515.79096,886.81393 515.10556,893.65385 C 514.42014,900.49381 532.0524,873.16849 542.83207,866.22743 C 553.61174,859.28637 581.05711,827.34187 574.51309,828.69622 C 574.51309,828.69622 574.51309,828.69622 574.51309,828.69622 M 607.56447,891.64327 C 602.04804,887.87138 526.09231,891.83888 520.99241,896.44815 C 515.89249,901.05743 546.1809,891.3568 558.55821,894.70066 C 570.93553,898.04452 613.08093,895.41517 607.56447,891.64327 C 607.56447,891.64327 607.56447,891.64327 607.56447,891.64327" />
    </g>
    <rect
       style="fill:#000000;fill-opacity:1;stroke:#000000;stroke-width:0.13913548;stroke-miterlimit:4;stroke-dasharray:none;stroke-opacity:1"
       id="trunk2"
       width="2.4453621"
       height="69.242363"
       x="557.17578"
       y="165.05981" />
    <path
       style="fill:#000000;fill-opacity:1;stroke:#000000;stroke-width:0.1388987;stroke-miterlimit:4;stroke-opacity:1"
       d="M 556.58972,246.92749 L 559.23845,246.799 C 548.73445,272.67145 548.80265,295.99292 559.88087,316.0416 L 556.58972,316.0416 C 545.32917,294.05787 547.96415,270.93697 556.58972,246.92749 z"
       id="trunk3"
       sodipodi:nodetypes="ccccc" />
    <path
       style="fill:#000000;fill-opacity:1;stroke:#000000;stroke-width:0.13991411;stroke-miterlimit:4;stroke-opacity:1"
       d="M 553.98743,324.75503 L 556.44646,324.75503 C 556.44646,347.83556 570.06656,370.53775 556.44646,393.99661 L 553.98743,393.99661 C 567.14629,371.83414 554.2677,347.85511 553.98743,324.75503 z"
       id="trunk4"
       sodipodi:nodetypes="ccccc" />
    <path
       style="fill:#000000;fill-opacity:1;stroke:#000000;stroke-width:0.14176524;stroke-miterlimit:4;stroke-opacity:1"
       d="M 553.3378,406.41724 L 555.82938,406.41724 C 555.82938,429.49715 566.20559,453.66929 555.82938,475.65697 L 553.3378,475.65697 C 564.21179,450.2878 553.3378,429.49715 553.3378,406.41724 z"
       id="trunk5"
       sodipodi:nodetypes="ccccc" />
    <path
       style="fill:#000000;fill-opacity:1;stroke:#000000;stroke-width:0.08441631;stroke-miterlimit:4;stroke-opacity:1"
       d="M 926.86287,177.71348 L 926.88027,177.7886 C 936.80581,189.45921 931.03278,203.38646 921.77223,218.19284 L 921.67972,218.19284 C 925.00485,202.73367 926.10887,190.00817 926.86287,177.71348 z"
       id="leaf2r"
       sodipodi:nodetypes="ccccc" />
    <path
       sodipodi:nodetypes="ccccc"
       id="leaf2l"
       d="M 898.45412,178.18668 L 898.43672,178.2618 C 888.51118,189.93241 894.2842,203.85966 903.54475,218.66604 L 903.63726,218.66604 C 900.31213,203.20687 899.20811,190.48137 898.45412,178.18668 z"
       style="fill:#000000;fill-opacity:1;stroke:#000000;stroke-width:0.08441631;stroke-miterlimit:4;stroke-opacity:1" />
    <path
       sodipodi:nodetypes="ccccc"
       id="leaf3r"
       d="M 928.78604,260.2175 L 928.87711,260.51402 C 935.38799,277.63395 924.6757,291.65173 918.00652,300.57087 L 917.86418,300.49234 C 920.48284,288.72007 916.16204,270.19249 928.78604,260.2175 z"
       style="fill:#000000;fill-opacity:1;stroke:#000000;stroke-width:0.21041012;stroke-miterlimit:4;stroke-opacity:1" />
    <path
       style="fill:#000000;fill-opacity:1;stroke:#000000;stroke-width:0.21041012;stroke-miterlimit:4;stroke-opacity:1"
       d="M 897.54204,258.78655 L 897.45097,259.08307 C 890.94008,276.203 901.65238,290.22078 908.32155,299.13992 L 908.4639,299.06139 C 905.84523,287.28912 910.16604,268.76154 897.54204,258.78655 z"
       id="leaf3l"
       sodipodi:nodetypes="ccccc" />
    <path
       style="fill:#000000;fill-opacity:1;stroke:#000000;stroke-width:0.26006141;stroke-miterlimit:4;stroke-opacity:1"
       d="M 931.5195,336.55681 L 931.65878,336.85296 C 941.61727,353.95183 925.23268,367.95236 915.03208,376.86053 L 914.81437,376.7821 C 918.81965,365.02431 912.21092,346.51953 931.5195,336.55681 z"
       id="leaf4r"
       sodipodi:nodetypes="ccccc" />
    <path
       sodipodi:nodetypes="ccccc"
       id="leaf4l"
       d="M 886.08896,335.12586 L 885.94967,335.42201 C 875.99118,352.52088 892.37578,366.52141 902.57637,375.42958 L 902.79408,375.35115 C 898.7888,363.59336 905.39753,345.08858 886.08896,335.12586 z"
       style="fill:#000000;fill-opacity:1;stroke:#000000;stroke-width:0.26006141;stroke-miterlimit:4;stroke-opacity:1" />
    <path
       sodipodi:nodetypes="cssssc"
       id="leaf5r"
       d="M 921.58529,431.55125 C 919.87044,435.37277 920.00007,442.4303 921.42512,446.59788 C 923.33627,452.18706 926.66628,451.55618 928.61984,446.38434 C 931.08788,439.85046 930.79417,428.95735 928.40305,422.68535 C 925.49919,415.0684 920.54837,415.74349 917.99242,423.97529 C 915.62888,431.58744 916.20648,446.79939 915.45312,456.85104"
       style="fill:none;fill-rule:evenodd;stroke:#000000;stroke-width:0.79745889px;stroke-linecap:butt;stroke-linejoin:miter;stroke-opacity:1" />
    <path
       style="fill:none;fill-rule:evenodd;stroke:#000000;stroke-width:0.79745889px;stroke-linecap:butt;stroke-linejoin:miter;stroke-opacity:1"
       d="M 895.48377,434.69265 C 897.19862,438.51418 897.06898,445.5717 895.64393,449.73929 C 893.73278,455.32846 890.40278,454.69758 888.44922,449.52574 C 885.98118,442.99187 886.27489,432.09876 888.66601,425.82675 C 891.56987,418.2098 896.52069,418.88489 899.07663,427.1167 C 901.44018,434.72884 900.86257,449.9408 901.61593,459.99244"
       id="leaf5l"
       sodipodi:nodetypes="cssssc" />
    <path
       sodipodi:nodetypes="ccccc"
       id="leaf6r"
       d="M 919.72296,499.27885 L 920.07457,499.24204 C 938.6438,506.86778 928.32202,521.24071 914.03244,538.23464 L 913.8564,538.28679 C 916.78162,523.0128 925.51306,505.94325 919.72296,499.27885 z"
       style="fill:#000000;fill-opacity:1;stroke:#000000;stroke-width:0.11025909;stroke-miterlimit:4;stroke-opacity:1" />
    <path
       style="fill:#000000;fill-opacity:1;stroke:#000000;stroke-width:0.11025909;stroke-miterlimit:4;stroke-opacity:1"
       d="M 898.7397,500.68762 L 898.38809,500.65081 C 879.81885,508.27655 890.14064,522.64948 904.43021,539.64341 L 904.60626,539.69556 C 901.68103,524.42157 892.94959,507.35202 898.7397,500.68762 z"
       id="leaf6l"
       sodipodi:nodetypes="ccccc" />
  </g>
  <path
     d="M 0,0 L 0,744.09448 M 380,0 L 380,744.09448 M 760,0 L 760,744.09448M 0,0 L 1052.3622,0 M 0,80 L 1052.3622,80 M 0,160 L 1052.3622,160 M 0,240 L 1052.3622,240 M 0,320 L 1052.3622,320 M 0,400 L 1052.3622,400 M 0,480 L 1052.3622,480 M 0,560 L 1052.3622,560 M 0,640 L 1052.3622,640 M 0,720 L 1052.3622,720"
     style="fill:none;fill-opacity:0.75000000;fill-rule:evenodd;stroke:#000000;stroke-linecap:butt;stroke-linejoin:miter;stroke-opacity:1.0000000;stroke-width:10,000000pt"
     id="path4441" />
</svg>
